# Made in Blockbench 4.12.3
mtllib Wisp.mtl

o WispBody
v -0.15625000000000003 0.3125 -0.15624999999999997
v -0.15624999999999997 0.3125 0.15625000000000003
v -0.15625000000000003 0 -0.15624999999999997
v -0.15624999999999997 0 0.15625000000000003
v 0.15625000000000003 0.3125 0.15624999999999997
v 0.15624999999999997 0.3125 -0.15625000000000003
v 0.15625000000000003 0 0.15624999999999997
v 0.15624999999999997 0 -0.15625000000000003
vt 0 1
vt 0.3125 1
vt 0.3125 0.6875
vt 0 0.6875
vt 0 0.6875
vt 0.3125 0.6875
vt 0.3125 0.375
vt 0 0.375
vt 0.3125 1
vt 0.625 1
vt 0.625 0.6875
vt 0.3125 0.6875
vt 0.3125 0.6875
vt 0.625 0.6875
vt 0.625 0.375
vt 0.3125 0.375
vt 0.3125 0.0625
vt 0 0.0625
vt 0 0.375
vt 0.3125 0.375
vt 0.9375 1
vt 0.625 1
vt 0.625 0.6875
vt 0.9375 0.6875
vn 1.2246467991473532e-16 0 1
vn -1 0 1.2246467991473532e-16
vn -1.2246467991473532e-16 0 -1
vn 1 0 -1.2246467991473532e-16
vn 0 1 0
vn 0 -1 0
usemtl m_0192ffde-1a32-76dc-f508-a0a7389a17b5
f 4/4/1 7/3/1 5/2/1 2/1/1
f 3/8/2 4/7/2 2/6/2 1/5/2
f 8/12/3 3/11/3 1/10/3 6/9/3
f 7/16/4 8/15/4 6/14/4 5/13/4
f 6/20/5 1/19/5 2/18/5 5/17/5
f 7/24/6 4/23/6 3/22/6 8/21/6